# xmcd
#
# Track frame offsets:
#	150
#	17617
#	38747
#	59439
#	80741
#	100611
#	122162
#	145175
#	167115
#	191640
#	212255
#	233733
#	252941
#	277767
#	296943
#	315207
#
# Disc length: 4472 seconds
#
# Revision: 0
# Processed by: cddbd v1.5.2PL0 Copyright (c) Steve Scherf et al.
# Submitted via: dBpowerAMP V4.0
#
DISCID=d8117610
DTITLE=Johnny Hallyday - Anthologie CD 3
DYEAR=1900
DGENRE=
TTITLE0=L'envie
TTITLE1=J'oublierai ton nom (en duo avec Carmel)
TTITLE2=Je te promets
TTITLE3=Laura
TTITLE4=Mirador
TTITLE5=Cadillac
TTITLE6=Diego (Libre dans sa tête - Live Bercy 1990)
TTITLE7=Ca ne change pas un homme
TTITLE8=Je serai là
TTITLE9=J'la croise tous les matins
TTITLE10=Ne m'oublie pas
TTITLE11=Ce que je sais
TTITLE12=Allumer le feu
TTITLE13=Sang pour sang
TTITLE14=Un jour viendra
TTITLE15=Vivre pour le meilleur
EXTD=
EXTT0=
EXTT1=
EXTT2=
EXTT3=
EXTT4=
EXTT5=
EXTT6=
EXTT7=
EXTT8=
EXTT9=
EXTT10=
EXTT11=
EXTT12=
EXTT13=
EXTT14=
EXTT15=
PLAYORDER=
